<svg width="8" height="8" viewBox="0 0 8 8" fill="none" xmlns="http://www.w3.org/2000/svg">
<path d="M5.09091 0.662387C5.09091 0.486711 5.01429 0.318231 4.8779 0.194009C4.74151 0.0697871 4.55652 0 4.36364 0L3.63636 0C3.44348 0 3.25849 0.0697871 3.1221 0.194009C2.98571 0.318231 2.90909 0.486711 2.90909 0.662387V1.98716C2.90909 2.16284 2.83247 2.33132 2.69608 2.45554C2.55969 2.57976 2.3747 2.64955 2.18182 2.64955H0.727273C0.534388 2.64955 0.349403 2.71934 0.213013 2.84356C0.0766232 2.96778 0 3.13626 0 3.31194L0 3.97432C0 4.15 0.0766232 4.31848 0.213013 4.4427C0.349403 4.56693 0.534388 4.63671 0.727273 4.63671H2.18182C2.3747 4.63671 2.55969 4.7065 2.69608 4.83072C2.83247 4.95494 2.90909 5.12342 2.90909 5.2991V6.62387C2.90909 6.79955 2.98571 6.96803 3.1221 7.09225C3.25849 7.21648 3.44348 7.28626 3.63636 7.28626H4.36364C4.55652 7.28626 4.74151 7.21648 4.8779 7.09225C5.01429 6.96803 5.09091 6.79955 5.09091 6.62387V5.2991C5.09091 5.12342 5.16753 4.95494 5.30392 4.83072C5.44031 4.7065 5.6253 4.63671 5.81818 4.63671H7.27273C7.46561 4.63671 7.6506 4.56693 7.78699 4.4427C7.92338 4.31848 8 4.15 8 3.97432V3.31194C8 3.13626 7.92338 2.96778 7.78699 2.84356C7.6506 2.71934 7.46561 2.64955 7.27273 2.64955H5.81818C5.6253 2.64955 5.44031 2.57976 5.30392 2.45554C5.16753 2.33132 5.09091 2.16284 5.09091 1.98716V0.662387Z" fill="#A6ACCB"/>
</svg>
