<svg width="61" height="19" viewBox="0 0 61 19" fill="none" xmlns="http://www.w3.org/2000/svg">
<g clip-path="url(#clip0_2196_2761)">
<mask id="mask0_2196_2761" style="mask-type:luminance" maskUnits="userSpaceOnUse" x="0" y="0" width="61" height="19">
<path d="M61 0.462891H0V18.537H61V0.462891Z" fill="white"/>
</mask>
<g mask="url(#mask0_2196_2761)">
<path d="M8.75653 1.77069C9.1863 1.98212 9.52343 2.25123 9.77126 2.56965C8.0019 1.89211 5.50548 1.54789 2.22026 1.68604C5.27413 1.01504 7.42879 1.11798 8.75653 1.77069ZM0.384725 2.28722C0.384725 2.38716 0.379157 2.48546 0.370162 2.58258C5.01823 2.16233 8.25569 2.6089 10.2316 3.58526C10.3906 4.36279 10.242 5.31354 9.80389 6.37853C9.98809 6.5074 10.1702 6.64058 10.3496 6.77788C10.7734 5.76482 10.9679 4.82021 10.9227 3.98088C11.0176 4.04431 11.1092 4.10989 11.1965 4.17611C12.0356 4.81759 12.475 5.59649 12.5446 6.4494C12.5951 7.07226 12.4526 7.74816 12.1285 8.45308L12.1618 8.49329C12.3058 8.66921 12.4458 8.85447 12.5773 9.04982C13.0399 8.12933 13.2453 7.22445 13.1765 6.37396C13.0877 5.2784 12.5515 4.30055 11.5348 3.52307C11.3 3.34346 11.0381 3.17474 10.7489 3.01714C10.476 2.17037 9.89674 1.49741 8.99535 1.05404C7.31005 0.225036 4.43284 0.207857 0.254883 1.39813C0.337426 1.67611 0.384725 1.97462 0.384725 2.28722Z" fill="white"/>
<path d="M8.52197 8.67702C8.67901 8.84872 8.83314 9.02366 8.98401 9.20282C9.21539 8.87109 9.42619 8.54342 9.61707 8.2217C9.43917 8.08441 9.25759 7.95172 9.0726 7.82324C8.90549 8.10354 8.72207 8.38874 8.52197 8.67702Z" fill="white"/>
<path d="M10.2656 10.9964C10.3896 11.2092 10.5056 11.4252 10.6128 11.6443C11.0188 11.2435 11.3783 10.8405 11.6903 10.4383C11.5659 10.2193 11.4248 10.0162 11.2842 9.83496C10.9922 10.2218 10.6516 10.61 10.2656 10.9964Z" fill="white"/>
<path d="M12.4676 11.9151C12.4198 12.698 11.9866 13.4432 11.1815 14.11C11.105 14.1739 11.0245 14.2369 10.9413 14.2986C10.9182 13.5523 10.7019 12.7395 10.2838 11.8811C9.10737 9.46606 6.27507 6.61602 1.57616 3.82778C6.63193 5.50969 9.88378 7.46945 11.4415 9.36538C12.1783 10.2622 12.5161 11.1256 12.4676 11.9151ZM0.362481 2.64404C0.315488 3.06201 0.189011 3.44868 0 3.77984C5.35847 6.72726 8.51135 9.75947 9.73631 12.2743C10.2386 13.3055 10.4043 14.2323 10.2536 15.0081C10.1062 15.7683 9.64637 16.4052 8.89373 16.8733C7.53606 17.7188 5.28113 18.0141 2.23051 17.5248C5.13164 17.3025 7.46988 16.7934 9.21788 16.0788C9.5209 15.7912 9.76639 15.4242 9.87023 14.9601C8.08811 15.8799 5.43385 16.5317 1.948 16.7739C5.07505 15.6111 7.61245 14.1739 9.4772 12.6578C9.45465 12.6076 9.43067 12.5587 9.40755 12.5106C9.3257 12.3417 9.23554 12.1743 9.14064 12.0089C7.35533 13.4669 4.9099 14.8569 1.88406 15.9927C4.46634 14.1747 6.53378 12.2692 8.03611 10.4468C7.88681 10.2676 7.73246 10.0926 7.57627 9.92146C5.98063 11.8539 3.70993 13.8938 0.834062 15.8247C0.937776 16.178 0.994683 16.5583 0.994683 16.955C0.994683 17.3358 0.941812 17.7015 0.845872 18.0429C4.6947 18.8711 7.53059 18.5885 9.18235 17.5596C10.0912 16.9937 10.6588 16.2025 10.8615 15.2409C11.1085 15.0824 11.3352 14.9183 11.5396 14.7482C12.5134 13.9412 13.0394 12.9991 13.1022 11.9727C13.1649 10.9535 12.7665 9.88568 11.8917 8.82089C10.125 6.67076 6.32445 4.45665 0.362481 2.64404Z" fill="white"/>
<path d="M16.3154 11.5412H21.2942V8.4375H16.3154V11.5412Z" fill="white"/>
<path d="M26.3522 15.4333H35.9888V18.537H26.3522V15.4333ZM26.3522 1.44336H35.9888V4.54708H26.3522V1.44336ZM25.262 1.44336H28.2795V18.537H25.262V1.44336Z" fill="white"/>
<path d="M41.3413 2.84232H44.3589V18.537H41.3413V2.84232ZM36.98 1.44336H48.7201V4.54708H36.98V1.44336Z" fill="white"/>
<path d="M51.5837 1.44336H61V4.54708H51.5837V1.44336ZM50.4824 1.44336H53.4999V18.537H50.4824V1.44336Z" fill="white"/>
<path d="M28.7316 11.5207H34.2131V8.41699H28.7316V11.5207Z" fill="white"/>
<path d="M53.889 11.7531H59.3705V8.64941H53.889V11.7531Z" fill="white"/>
</g>
</g>
<defs>
<clipPath id="clip0_2196_2761">
<rect width="61" height="18.0741" fill="white" transform="translate(0 0.462891)"/>
</clipPath>
</defs>
</svg>
